<svg width="73" height="71" viewBox="0 0 73 71" fill="none" xmlns="http://www.w3.org/2000/svg">
<path d="M33.9366 70.7448C29.2734 70.5087 24.9054 69.4167 20.8325 67.4688C16.7596 65.5208 13.2179 62.9679 10.2075 59.8099C7.19706 56.6519 4.82119 52.9774 3.07987 48.7865C1.33855 44.5955 0.467896 40.1389 0.467896 35.4167C0.467896 30.5174 1.39758 25.9132 3.25696 21.6042C5.11633 17.2951 7.63977 13.5469 10.8273 10.3594C14.0148 7.17188 17.763 4.64844 22.0721 2.78906C26.3811 0.929687 30.9853 0 35.8846 0C44.6797 0 52.3238 2.77431 58.8169 8.32292C65.3099 13.8715 69.2943 20.8368 70.77 29.2188H65.3689C64.3655 24.2604 62.27 19.8333 59.0825 15.9375C55.895 12.0417 51.9106 9.11979 47.1294 7.17188V8.76562C47.1294 10.8316 46.421 12.6319 45.0044 14.1667C43.5877 15.7014 41.8464 16.4688 39.7804 16.4688H32.0773V24.1719C32.0773 25.1753 31.6788 26.0017 30.882 26.651C30.0851 27.3003 29.1849 27.625 28.1814 27.625H20.8325V35.4167H30.5721V46.4844H24.6398L6.57727 28.4219C6.28213 29.6024 6.07553 30.7682 5.95748 31.9193C5.83942 33.0703 5.7804 34.2361 5.7804 35.4167C5.7804 43.3854 8.46616 50.2622 13.8377 56.0469C19.2092 61.8316 25.9089 64.9601 33.9366 65.4323V70.7448ZM68.645 68.4427L56.7804 56.5781C55.5408 57.4635 54.1979 58.1424 52.7518 58.6146C51.3056 59.0868 49.8151 59.3229 48.2804 59.3229C44.0894 59.3229 40.533 57.862 37.6111 54.9401C34.6892 52.0182 33.2283 48.4618 33.2283 44.2708C33.2283 40.0799 34.6892 36.5234 37.6111 33.6016C40.533 30.6797 44.0894 29.2188 48.2804 29.2188C52.4714 29.2188 56.0278 30.6797 58.9497 33.6016C61.8715 36.5234 63.3325 40.0799 63.3325 44.2708C63.3325 45.8056 63.0816 47.296 62.5799 48.7422C62.0781 50.1884 61.4141 51.5608 60.5877 52.8594L72.4523 64.6354L68.645 68.4427ZM48.2804 54.0104C50.9957 54.0104 53.2978 53.066 55.1866 51.1771C57.0755 49.2882 58.02 46.9861 58.02 44.2708C58.02 41.5556 57.0755 39.2535 55.1866 37.3646C53.2978 35.4757 50.9957 34.5312 48.2804 34.5312C45.5651 34.5312 43.263 35.4757 41.3741 37.3646C39.4853 39.2535 38.5408 41.5556 38.5408 44.2708C38.5408 46.9861 39.4853 49.2882 41.3741 51.1771C43.263 53.066 45.5651 54.0104 48.2804 54.0104Z" fill="#FF7A0F"/>
</svg>
