<svg width="79" height="54" viewBox="0 0 79 54" fill="none" xmlns="http://www.w3.org/2000/svg">
<path d="M39.5 41.7813C43.6909 41.7813 47.2474 40.3203 50.1692 37.3985C53.0911 34.4766 54.552 30.9202 54.552 26.7292C54.552 22.5382 53.0911 18.9818 50.1692 16.0599C47.2474 13.138 43.6909 11.6771 39.5 11.6771C35.309 11.6771 31.7526 13.138 28.8307 16.0599C25.9088 18.9818 24.4479 22.5382 24.4479 26.7292C24.4479 30.9202 25.9088 34.4766 28.8307 37.3985C31.7526 40.3203 35.309 41.7813 39.5 41.7813ZM39.5 36.6459C36.7257 36.6459 34.3793 35.6867 32.4609 33.7682C30.5425 31.8498 29.5833 29.5035 29.5833 26.7292C29.5833 23.9549 30.5425 21.6085 32.4609 19.6901C34.3793 17.7717 36.7257 16.8125 39.5 16.8125C42.2743 16.8125 44.6206 17.7717 46.539 19.6901C48.4574 21.6085 49.4166 23.9549 49.4166 26.7292C49.4166 29.5035 48.4574 31.8498 46.539 33.7682C44.6206 35.6867 42.2743 36.6459 39.5 36.6459ZM39.5 53.2917C30.8819 53.2917 23.0902 50.842 16.125 45.9427C9.15968 41.0434 3.96524 34.6389 0.541626 26.7292C3.96524 18.8195 9.15968 12.415 16.125 7.51565C23.0902 2.61634 30.8819 0.166687 39.5 0.166687C48.118 0.166687 55.9097 2.61634 62.875 7.51565C69.8402 12.415 75.0347 18.8195 78.4583 26.7292C75.0347 34.6389 69.8402 41.0434 62.875 45.9427C55.9097 50.842 48.118 53.2917 39.5 53.2917ZM39.5 47.9792C46.6423 47.9792 53.2092 46.046 59.2005 42.1797C65.1918 38.3134 69.7517 33.1632 72.8802 26.7292C69.7517 20.2952 65.1918 15.145 59.2005 11.2787C53.2092 7.41235 46.6423 5.47919 39.5 5.47919C32.3576 5.47919 25.7908 7.41235 19.7994 11.2787C13.8081 15.145 9.21871 20.2952 6.03121 26.7292C9.21871 33.1632 13.8081 38.3134 19.7994 42.1797C25.7908 46.046 32.3576 47.9792 39.5 47.9792Z" fill="#F5F5F5"/>
</svg>
