<svg width="79" height="57" viewBox="0 0 79 57" fill="none" xmlns="http://www.w3.org/2000/svg">
<path d="M50.125 56.8334C42.2153 56.8334 35.5156 54.0886 30.026 48.599C24.5364 43.1094 21.7917 36.4097 21.7917 28.5C21.7917 20.5903 24.5364 13.8906 30.026 8.40106C35.5156 2.91148 42.2153 0.166687 50.125 0.166687C58.0347 0.166687 64.7344 2.91148 70.2239 8.40106C75.7135 13.8906 78.4583 20.5903 78.4583 28.5C78.4583 36.4097 75.7135 43.1094 70.2239 48.599C64.7344 54.0886 58.0347 56.8334 50.125 56.8334ZM50.125 51.5209C56.5 51.5209 61.9305 49.2778 66.4167 44.7917C70.9028 40.3056 73.1458 34.875 73.1458 28.5C73.1458 22.125 70.9028 16.6945 66.4167 12.2084C61.9305 7.72224 56.5 5.47919 50.125 5.47919C43.75 5.47919 38.3194 7.72224 33.8333 12.2084C29.3472 16.6945 27.1042 22.125 27.1042 28.5C27.1042 34.875 29.3472 40.3056 33.8333 44.7917C38.3194 49.2778 43.75 51.5209 50.125 51.5209ZM59.1562 41.1615L62.875 37.4427L52.8698 27.349L52.7812 14.3334H47.4687V29.5625L59.1562 41.1615ZM4.08332 16.9896V11.6771H18.25V16.9896H4.08332ZM0.541656 31.1563V25.8438H18.25V31.1563H0.541656ZM4.08332 45.3229V40.0104H18.25V45.3229H4.08332Z" fill="#FF7A0F"/>
</svg>
