<svg width="79" height="75" viewBox="0 0 79 75" fill="none" xmlns="http://www.w3.org/2000/svg">
<path d="M27.6753 74.6875L20.9461 63.1771L7.57633 60.4323L9.08154 47.4167L0.581543 37.5L9.08154 27.6719L7.57633 14.6563L20.9461 11.9115L27.6753 0.3125L39.5399 5.80208L51.4045 0.3125L58.2222 11.9115L71.5034 14.6563L69.9982 27.6719L78.4982 37.5L69.9982 47.4167L71.5034 60.4323L58.2222 63.1771L51.4045 74.6875L39.5399 69.1979L27.6753 74.6875ZM30.0659 67.6927L39.5399 63.7083L49.2795 67.6927L55.2117 58.8385L65.5711 56.1823L64.5086 45.6458L71.6805 37.5L64.5086 29.1771L65.5711 18.6406L55.2117 16.1615L49.1024 7.30729L39.5399 11.2917L29.8003 7.30729L23.868 16.1615L13.5086 18.6406L14.5711 29.1771L7.39925 37.5L14.5711 45.6458L13.5086 56.3594L23.868 58.8385L30.0659 67.6927ZM35.7326 49.276L55.8315 29.3542L51.8472 25.724L35.7326 41.6615L27.3211 32.8958L23.2482 36.8802L35.7326 49.276Z" fill="#FF7A0F"/>
</svg>
