<svg width="187" height="24" viewBox="0 0 187 24" fill="none" xmlns="http://www.w3.org/2000/svg">
<path d="M8.23476 0.663994C10.5814 0.663994 12.6401 1.12266 14.4108 2.03999C16.2028 2.95733 17.5788 4.26933 18.5388 5.97599C19.5201 7.66133 20.0108 9.62399 20.0108 11.864C20.0108 14.104 19.5201 16.0667 18.5388 17.752C17.5788 19.416 16.2028 20.7067 14.4108 21.624C12.6401 22.5413 10.5814 23 8.23476 23H0.426758V0.663994H8.23476ZM8.07476 19.192C10.4214 19.192 12.2348 18.552 13.5148 17.272C14.7948 15.992 15.4348 14.1893 15.4348 11.864C15.4348 9.53866 14.7948 7.72533 13.5148 6.42399C12.2348 5.10133 10.4214 4.43999 8.07476 4.43999H4.90676V19.192H8.07476Z" fill="black"/>
<path d="M27.8443 0.663994V23H23.3643V0.663994H27.8443Z" fill="black"/>
<path d="M42.6385 23.224C40.5478 23.224 38.6278 22.7333 36.8785 21.752C35.1292 20.7707 33.7425 19.416 32.7185 17.688C31.6945 15.9387 31.1825 13.9653 31.1825 11.768C31.1825 9.59199 31.6945 7.63999 32.7185 5.91199C33.7425 4.16266 35.1292 2.79733 36.8785 1.81599C38.6278 0.83466 40.5478 0.343994 42.6385 0.343994C44.7505 0.343994 46.6705 0.83466 48.3985 1.81599C50.1478 2.79733 51.5238 4.16266 52.5265 5.91199C53.5505 7.63999 54.0625 9.59199 54.0625 11.768C54.0625 13.9653 53.5505 15.9387 52.5265 17.688C51.5238 19.416 50.1478 20.7707 48.3985 21.752C46.6492 22.7333 44.7292 23.224 42.6385 23.224ZM42.6385 19.224C43.9825 19.224 45.1665 18.9253 46.1905 18.328C47.2145 17.7093 48.0145 16.8347 48.5905 15.704C49.1665 14.5733 49.4545 13.2613 49.4545 11.768C49.4545 10.2747 49.1665 8.97333 48.5905 7.86399C48.0145 6.73333 47.2145 5.86933 46.1905 5.27199C45.1665 4.67466 43.9825 4.37599 42.6385 4.37599C41.2945 4.37599 40.0998 4.67466 39.0545 5.27199C38.0305 5.86933 37.2305 6.73333 36.6545 7.86399C36.0785 8.97333 35.7905 10.2747 35.7905 11.768C35.7905 13.2613 36.0785 14.5733 36.6545 15.704C37.2305 16.8347 38.0305 17.7093 39.0545 18.328C40.0998 18.9253 41.2945 19.224 42.6385 19.224Z" fill="black"/>
<path d="M72.9475 7.38399C72.4355 6.44533 71.7315 5.73066 70.8355 5.23999C69.9395 4.74933 68.8942 4.50399 67.6995 4.50399C66.3768 4.50399 65.2035 4.80266 64.1795 5.39999C63.1555 5.99733 62.3555 6.85066 61.7795 7.95999C61.2035 9.06933 60.9155 10.3493 60.9155 11.8C60.9155 13.2933 61.2035 14.5947 61.7795 15.704C62.3768 16.8133 63.1982 17.6667 64.2435 18.264C65.2888 18.8613 66.5048 19.16 67.8915 19.16C69.5982 19.16 70.9955 18.712 72.0835 17.816C73.1715 16.8987 73.8862 15.6293 74.2275 14.008H66.5475V10.584H78.6435V14.488C78.3448 16.0453 77.7048 17.4853 76.7235 18.808C75.7422 20.1307 74.4728 21.1973 72.9155 22.008C71.3795 22.7973 69.6515 23.192 67.7315 23.192C65.5768 23.192 63.6248 22.712 61.8755 21.752C60.1475 20.7707 58.7822 19.416 57.7795 17.688C56.7982 15.96 56.3075 13.9973 56.3075 11.8C56.3075 9.60266 56.7982 7.63999 57.7795 5.91199C58.7822 4.16266 60.1475 2.80799 61.8755 1.84799C63.6248 0.86666 65.5662 0.375994 67.6995 0.375994C70.2168 0.375994 72.4035 0.99466 74.2595 2.23199C76.1155 3.44799 77.3955 5.16533 78.0995 7.38399H72.9475Z" fill="black"/>
<path d="M92.326 23.224C90.2353 23.224 88.3153 22.7333 86.566 21.752C84.8167 20.7707 83.43 19.416 82.406 17.688C81.382 15.9387 80.87 13.9653 80.87 11.768C80.87 9.59199 81.382 7.63999 82.406 5.91199C83.43 4.16266 84.8167 2.79733 86.566 1.81599C88.3153 0.83466 90.2353 0.343994 92.326 0.343994C94.438 0.343994 96.358 0.83466 98.086 1.81599C99.8353 2.79733 101.211 4.16266 102.214 5.91199C103.238 7.63999 103.75 9.59199 103.75 11.768C103.75 13.9653 103.238 15.9387 102.214 17.688C101.211 19.416 99.8353 20.7707 98.086 21.752C96.3367 22.7333 94.4167 23.224 92.326 23.224ZM92.326 19.224C93.67 19.224 94.854 18.9253 95.878 18.328C96.902 17.7093 97.702 16.8347 98.278 15.704C98.854 14.5733 99.142 13.2613 99.142 11.768C99.142 10.2747 98.854 8.97333 98.278 7.86399C97.702 6.73333 96.902 5.86933 95.878 5.27199C94.854 4.67466 93.67 4.37599 92.326 4.37599C90.982 4.37599 89.7873 4.67466 88.742 5.27199C87.718 5.86933 86.918 6.73333 86.342 7.86399C85.766 8.97333 85.478 10.2747 85.478 11.768C85.478 13.2613 85.766 14.5733 86.342 15.704C86.918 16.8347 87.718 17.7093 88.742 18.328C89.7873 18.9253 90.982 19.224 92.326 19.224Z" fill="black"/>
<path d="M119.188 19.448H126.548V23H114.708V0.663994H119.188V19.448Z" fill="black"/>
<path d="M133.876 0.663994V23H129.396V0.663994H133.876Z" fill="black"/>
<path d="M162.654 0.663994V23H158.174V8.47199L152.19 23H148.798L142.782 8.47199V23H138.302V0.663994H143.39L150.494 17.272L157.598 0.663994H162.654Z" fill="black"/>
<path d="M180.779 18.744H171.883L170.411 23H165.707L173.739 0.631992H178.955L186.987 23H182.251L180.779 18.744ZM179.563 15.16L176.331 5.81599L173.099 15.16H179.563Z" fill="black"/>
</svg>
