<svg width="190" height="24" viewBox="0 0 190 24" fill="none" xmlns="http://www.w3.org/2000/svg">
<path d="M8.49376 0.536064C10.8618 0.536064 12.9311 1.0054 14.7018 1.94406C16.4724 2.88273 17.8378 4.2054 18.7978 5.91206C19.7791 7.5974 20.2698 9.5494 20.2698 11.7681C20.2698 13.9654 19.7791 15.9174 18.7978 17.6241C17.8378 19.3307 16.4618 20.6534 14.6698 21.5921C12.8991 22.5307 10.8404 23.0001 8.49376 23.0001H0.0777588V0.536064H8.49376ZM8.14176 18.2641C10.2111 18.2641 11.8218 17.6987 12.9738 16.5681C14.1258 15.4374 14.7018 13.8374 14.7018 11.7681C14.7018 9.69873 14.1258 8.08806 12.9738 6.93606C11.8218 5.78406 10.2111 5.20806 8.14176 5.20806H5.54976V18.2641H8.14176Z" fill="#CCCCCC"/>
<path d="M28.7998 0.536064V23.0001H23.3278V0.536064H28.7998Z" fill="#CCCCCC"/>
<path d="M43.3893 23.2241C41.2773 23.2241 39.3359 22.7334 37.5653 21.7521C35.8159 20.7707 34.4186 19.4054 33.3733 17.6561C32.3493 15.8854 31.8373 13.9014 31.8373 11.7041C31.8373 9.50673 32.3493 7.5334 33.3733 5.78406C34.4186 4.03473 35.8159 2.6694 37.5653 1.68806C39.3359 0.706731 41.2773 0.216064 43.3893 0.216064C45.5013 0.216064 47.4319 0.706731 49.1813 1.68806C50.9519 2.6694 52.3386 4.03473 53.3413 5.78406C54.3653 7.5334 54.8773 9.50673 54.8773 11.7041C54.8773 13.9014 54.3653 15.8854 53.3413 17.6561C52.3173 19.4054 50.9306 20.7707 49.1813 21.7521C47.4319 22.7334 45.5013 23.2241 43.3893 23.2241ZM43.3893 18.2321C45.1813 18.2321 46.6106 17.6347 47.6773 16.4401C48.7653 15.2454 49.3093 13.6667 49.3093 11.7041C49.3093 9.72006 48.7653 8.1414 47.6773 6.96806C46.6106 5.7734 45.1813 5.17606 43.3893 5.17606C41.5759 5.17606 40.1253 5.76273 39.0373 6.93606C37.9706 8.1094 37.4373 9.69873 37.4373 11.7041C37.4373 13.6881 37.9706 15.2774 39.0373 16.4721C40.1253 17.6454 41.5759 18.2321 43.3893 18.2321Z" fill="#CCCCCC"/>
<path d="M72.8335 7.64006C72.4282 6.8934 71.8415 6.32806 71.0735 5.94406C70.3268 5.53873 69.4415 5.33606 68.4175 5.33606C66.6468 5.33606 65.2282 5.92273 64.1615 7.09606C63.0948 8.24806 62.5615 9.79473 62.5615 11.7361C62.5615 13.8054 63.1162 15.4267 64.2255 16.6001C65.3562 17.7521 66.9028 18.3281 68.8655 18.3281C70.2095 18.3281 71.3402 17.9867 72.2575 17.3041C73.1962 16.6214 73.8788 15.6401 74.3055 14.3601H67.3615V10.3281H79.2655V15.4161C78.8602 16.7814 78.1668 18.0507 77.1855 19.2241C76.2255 20.3974 74.9988 21.3467 73.5055 22.0721C72.0122 22.7974 70.3268 23.1601 68.4495 23.1601C66.2308 23.1601 64.2468 22.6801 62.4975 21.7201C60.7695 20.7387 59.4148 19.3841 58.4335 17.6561C57.4735 15.9281 56.9935 13.9547 56.9935 11.7361C56.9935 9.5174 57.4735 7.54406 58.4335 5.81606C59.4148 4.06673 60.7695 2.71206 62.4975 1.75206C64.2255 0.77073 66.1988 0.280064 68.4175 0.280064C71.1055 0.280064 73.3668 0.93073 75.2015 2.23206C77.0575 3.5334 78.2842 5.33606 78.8815 7.64006H72.8335Z" fill="#CCCCCC"/>
<path d="M92.9205 23.2241C90.8085 23.2241 88.8672 22.7334 87.0965 21.7521C85.3472 20.7707 83.9498 19.4054 82.9045 17.6561C81.8805 15.8854 81.3685 13.9014 81.3685 11.7041C81.3685 9.50673 81.8805 7.5334 82.9045 5.78406C83.9498 4.03473 85.3472 2.6694 87.0965 1.68806C88.8672 0.706731 90.8085 0.216064 92.9205 0.216064C95.0325 0.216064 96.9632 0.706731 98.7125 1.68806C100.483 2.6694 101.87 4.03473 102.873 5.78406C103.897 7.5334 104.409 9.50673 104.409 11.7041C104.409 13.9014 103.897 15.8854 102.873 17.6561C101.849 19.4054 100.462 20.7707 98.7125 21.7521C96.9632 22.7334 95.0325 23.2241 92.9205 23.2241ZM92.9205 18.2321C94.7125 18.2321 96.1418 17.6347 97.2085 16.4401C98.2965 15.2454 98.8405 13.6667 98.8405 11.7041C98.8405 9.72006 98.2965 8.1414 97.2085 6.96806C96.1418 5.7734 94.7125 5.17606 92.9205 5.17606C91.1072 5.17606 89.6565 5.76273 88.5685 6.93606C87.5018 8.1094 86.9685 9.69873 86.9685 11.7041C86.9685 13.6881 87.5018 15.2774 88.5685 16.4721C89.6565 17.6454 91.1072 18.2321 92.9205 18.2321Z" fill="#CCCCCC"/>
<path d="M119.706 18.7761H126.874V23.0001H114.234V0.536064H119.706V18.7761Z" fill="#CCCCCC"/>
<path d="M134.956 0.536064V23.0001H129.484V0.536064H134.956Z" fill="#CCCCCC"/>
<path d="M164.362 0.536064V23.0001H158.89V9.52806L153.866 23.0001H149.45L144.394 9.49606V23.0001H138.922V0.536064H145.386L151.69 16.0881L157.93 0.536064H164.362Z" fill="#CCCCCC"/>
<path d="M182.281 19.0321H173.897L172.553 23.0001H166.825L174.953 0.536064H181.289L189.417 23.0001H183.625L182.281 19.0321ZM180.873 14.8081L178.089 6.58406L175.337 14.8081H180.873Z" fill="#CCCCCC"/>
</svg>
